<svg xmlns="http://www.w3.org/2000/svg" xmlns:xlink="http://www.w3.org/1999/xlink" width="285" zoomAndPan="magnify" viewBox="0 0 213.75 74.999997" height="100" preserveAspectRatio="xMidYMid meet" version="1.0"><defs><g/><clipPath id="17d778f0b1"><path d="M 21.097656 7.40625 L 81.027344 7.40625 L 81.027344 67.335938 L 21.097656 67.335938 Z M 21.097656 7.40625 " clip-rule="nonzero"/></clipPath></defs><g clip-path="url(#17d778f0b1)"><path fill="#f46530" d="M 35.09375 12.964844 C 30.445312 12.964844 26.660156 16.75 26.660156 21.398438 L 26.660156 53.46875 C 26.660156 58.117188 30.445312 61.902344 35.09375 61.902344 L 67.164062 61.902344 C 71.8125 61.902344 75.597656 58.117188 75.597656 53.46875 L 75.597656 21.398438 C 75.597656 16.75 71.8125 12.964844 67.164062 12.964844 Z M 67.164062 67.464844 L 35.09375 67.464844 C 27.378906 67.464844 21.097656 61.183594 21.097656 53.46875 L 21.097656 21.398438 C 21.097656 13.683594 27.378906 7.40625 35.09375 7.40625 L 67.164062 7.40625 C 74.878906 7.40625 81.15625 13.683594 81.15625 21.398438 L 81.15625 53.46875 C 81.15625 61.183594 74.878906 67.464844 67.164062 67.464844 " fill-opacity="1" fill-rule="nonzero"/></g><path fill="#f46530" d="M 72.027344 21.027344 C 72.027344 23.253906 70.222656 25.058594 67.996094 25.058594 C 65.769531 25.058594 63.964844 23.253906 63.964844 21.027344 C 63.964844 18.804688 65.769531 17 67.996094 17 C 70.222656 17 72.027344 18.804688 72.027344 21.027344 " fill-opacity="1" fill-rule="nonzero"/><path fill="#f46530" d="M 35.371094 37.421875 C 35.378906 28.742188 42.4375 21.683594 51.117188 21.679688 L 51.117188 16.535156 C 39.601562 16.542969 30.234375 25.90625 30.230469 37.421875 L 35.371094 37.421875 " fill-opacity="1" fill-rule="nonzero"/><path fill="#f46530" d="M 66.882812 37.445312 C 66.878906 46.125 59.816406 53.183594 51.140625 53.191406 L 51.140625 58.332031 C 62.652344 58.328125 72.019531 48.960938 72.027344 37.445312 L 66.882812 37.445312 " fill-opacity="1" fill-rule="nonzero"/><path fill="#f46530" d="M 51.140625 27.238281 C 56.753906 27.246094 61.316406 31.808594 61.324219 37.421875 L 66.882812 37.421875 C 66.878906 28.742188 59.816406 21.683594 51.140625 21.679688 L 51.140625 27.238281 " fill-opacity="1" fill-rule="nonzero"/><path fill="#f46530" d="M 51.117188 47.628906 C 45.503906 47.621094 40.941406 43.058594 40.933594 37.445312 L 35.371094 37.445312 C 35.378906 46.125 42.4375 53.183594 51.117188 53.191406 L 51.117188 47.628906 " fill-opacity="1" fill-rule="nonzero"/><g fill="#2a2e30" fill-opacity="1"><g transform="translate(87.996743, 45.171937)"><g><path d="M 9.109375 -6.3125 L 9.109375 -19.796875 L 13.9375 -19.796875 L 13.9375 -6.3125 C 13.9375 -4.269531 13.316406 -2.671875 12.078125 -1.515625 C 10.847656 -0.367188 9.273438 0.203125 7.359375 0.203125 C 5.441406 0.203125 3.867188 -0.363281 2.640625 -1.5 C 1.421875 -2.644531 0.8125 -4.25 0.8125 -6.3125 L 5.609375 -6.3125 C 5.628906 -5.5625 5.796875 -5.007812 6.109375 -4.65625 C 6.429688 -4.300781 6.847656 -4.125 7.359375 -4.125 C 7.867188 -4.125 8.285156 -4.300781 8.609375 -4.65625 C 8.941406 -5.007812 9.109375 -5.5625 9.109375 -6.3125 Z M 9.109375 -6.3125 "/></g></g></g><g fill="#2a2e30" fill-opacity="1"><g transform="translate(104.043147, 45.171937)"><g><path d="M 11.703125 -4.984375 C 12.398438 -5.660156 12.75 -6.617188 12.75 -7.859375 C 12.75 -9.109375 12.398438 -10.066406 11.703125 -10.734375 C 11.003906 -11.398438 10.203125 -11.734375 9.296875 -11.734375 C 8.398438 -11.734375 7.601562 -11.394531 6.90625 -10.71875 C 6.207031 -10.039062 5.859375 -9.082031 5.859375 -7.84375 C 5.859375 -6.601562 6.207031 -5.648438 6.90625 -4.984375 C 7.601562 -4.316406 8.398438 -3.984375 9.296875 -3.984375 C 10.203125 -3.984375 11.003906 -4.316406 11.703125 -4.984375 Z M 3.046875 -2.046875 C 1.648438 -3.554688 0.953125 -5.484375 0.953125 -7.828125 C 0.953125 -10.179688 1.648438 -12.113281 3.046875 -13.625 C 4.441406 -15.144531 6.140625 -15.90625 8.140625 -15.90625 C 10.140625 -15.90625 11.675781 -15.160156 12.75 -13.671875 L 12.75 -15.734375 L 17.578125 -15.734375 L 17.578125 0 L 12.75 0 L 12.75 -2.28125 C 11.582031 -0.625 10.019531 0.203125 8.0625 0.203125 C 6.113281 0.203125 4.441406 -0.546875 3.046875 -2.046875 Z M 3.046875 -2.046875 "/></g></g></g><g fill="#2a2e30" fill-opacity="1"><g transform="translate(123.022501, 45.171937)"><g><path d="M 6.9375 -15.734375 L 6.9375 -13.421875 C 7.9375 -15.078125 9.523438 -15.90625 11.703125 -15.90625 C 12.867188 -15.90625 13.90625 -15.640625 14.8125 -15.109375 C 15.726562 -14.585938 16.441406 -13.835938 16.953125 -12.859375 C 17.535156 -13.785156 18.289062 -14.523438 19.21875 -15.078125 C 20.144531 -15.628906 21.1875 -15.90625 22.34375 -15.90625 C 24.257812 -15.90625 25.78125 -15.3125 26.90625 -14.125 C 28.03125 -12.945312 28.59375 -11.300781 28.59375 -9.1875 L 28.59375 0 L 23.796875 0 L 23.796875 -8.546875 C 23.796875 -9.554688 23.53125 -10.335938 23 -10.890625 C 22.46875 -11.453125 21.726562 -11.734375 20.78125 -11.734375 C 19.84375 -11.734375 19.101562 -11.453125 18.5625 -10.890625 C 18.03125 -10.335938 17.765625 -9.554688 17.765625 -8.546875 L 17.765625 0 L 12.96875 0 L 12.96875 -8.546875 C 12.96875 -9.554688 12.695312 -10.335938 12.15625 -10.890625 C 11.625 -11.453125 10.890625 -11.734375 9.953125 -11.734375 C 9.015625 -11.734375 8.273438 -11.453125 7.734375 -10.890625 C 7.203125 -10.335938 6.9375 -9.554688 6.9375 -8.546875 L 6.9375 0 L 2.109375 0 L 2.109375 -15.734375 Z M 6.9375 -15.734375 "/></g></g></g><g fill="#2a2e30" fill-opacity="1"><g transform="translate(152.887611, 45.171937)"><g><path d="M 11.703125 -4.984375 C 12.398438 -5.660156 12.75 -6.617188 12.75 -7.859375 C 12.75 -9.109375 12.398438 -10.066406 11.703125 -10.734375 C 11.003906 -11.398438 10.203125 -11.734375 9.296875 -11.734375 C 8.398438 -11.734375 7.601562 -11.394531 6.90625 -10.71875 C 6.207031 -10.039062 5.859375 -9.082031 5.859375 -7.84375 C 5.859375 -6.601562 6.207031 -5.648438 6.90625 -4.984375 C 7.601562 -4.316406 8.398438 -3.984375 9.296875 -3.984375 C 10.203125 -3.984375 11.003906 -4.316406 11.703125 -4.984375 Z M 3.046875 -2.046875 C 1.648438 -3.554688 0.953125 -5.484375 0.953125 -7.828125 C 0.953125 -10.179688 1.648438 -12.113281 3.046875 -13.625 C 4.441406 -15.144531 6.140625 -15.90625 8.140625 -15.90625 C 10.140625 -15.90625 11.675781 -15.160156 12.75 -13.671875 L 12.75 -20.875 L 17.578125 -20.875 L 17.578125 0 L 12.75 0 L 12.75 -2.28125 C 11.582031 -0.625 10.019531 0.203125 8.0625 0.203125 C 6.113281 0.203125 4.441406 -0.546875 3.046875 -2.046875 Z M 3.046875 -2.046875 "/></g></g></g><g fill="#2a2e30" fill-opacity="1"><g transform="translate(171.866968, 45.171937)"><g><path d="M 6.234375 -0.3125 L 0.109375 -15.734375 L 5.578125 -15.734375 L 9.078125 -5.4375 L 12.921875 -15.734375 L 17.96875 -15.734375 L 7.921875 7.5 L 2.875 7.5 Z M 6.234375 -0.3125 "/></g></g></g></svg>